<?xml version="1.0" standalone="no"?>
<!DOCTYPE svg PUBLIC "-//W3C//DTD SVG 20010904//EN"
 "http://www.w3.org/TR/2001/REC-SVG-20010904/DTD/svg10.dtd">
<svg version="1.0" xmlns="http://www.w3.org/2000/svg"
 width="706.000000pt" height="706.000000pt" viewBox="0 0 706.000000 706.000000"
 preserveAspectRatio="xMidYMid meet">
<metadata>
Created by potrace 1.11, written by Peter Selinger 2001-2013
</metadata>
<g transform="translate(0.000000,706.000000) scale(0.100000,-0.100000)"
fill="#000000" stroke="none">
<path d="M3425 6110 c-55 -32 -111 -65 -125 -73 -14 -7 -79 -45 -146 -83 -66
-39 -127 -74 -135 -78 -8 -4 -23 -12 -34 -19 -11 -7 -51 -30 -90 -52 -38 -22
-77 -44 -87 -50 -9 -5 -54 -31 -100 -58 -46 -26 -101 -58 -123 -71 -168 -98
-378 -216 -385 -216 -5 0 -10 -4 -12 -8 -1 -4 -66 -43 -143 -87 -77 -44 -143
-84 -147 -90 -4 -5 -8 -6 -8 -2 0 4 -20 -6 -45 -23 -25 -17 -45 -27 -45 -23 0
4 -4 3 -8 -2 -4 -6 -61 -42 -127 -79 -66 -38 -163 -94 -215 -124 -52 -30 -113
-65 -135 -77 -53 -30 -163 -93 -200 -116 -16 -10 -48 -28 -70 -40 -64 -36 -76
-42 -165 -94 -47 -27 -97 -57 -112 -65 -16 -8 -68 -39 -118 -67 -49 -29 -94
-53 -99 -53 -5 0 -11 -4 -13 -8 -2 -5 -28 -22 -58 -39 -50 -28 -94 -53 -230
-132 -25 -14 -89 -51 -143 -81 -53 -30 -97 -57 -97 -60 0 -3 578 -5 1285 -4
707 0 1288 -3 1291 -7 4 -7 6 -552 4 -1120 l0 -86 -1290 1 c-710 1 -1290 -1
-1290 -4 0 -3 17 -14 38 -25 38 -20 168 -96 347 -201 55 -32 102 -59 105 -59
3 0 16 -8 30 -16 64 -40 152 -89 161 -89 5 0 9 -4 9 -10 0 -5 6 -10 14 -10 7
0 19 -7 26 -15 7 -8 16 -12 21 -9 5 3 9 2 9 -3 0 -4 12 -14 28 -20 15 -7 43
-23 62 -35 19 -12 37 -22 40 -23 3 0 16 -8 30 -16 38 -24 155 -92 255 -148 50
-28 95 -55 102 -61 7 -5 14 -10 17 -10 2 0 44 -23 93 -51 48 -29 108 -63 133
-77 25 -14 62 -36 82 -49 21 -12 40 -23 42 -23 3 0 41 -22 85 -49 44 -27 81
-47 84 -45 2 3 10 -2 17 -11 7 -8 19 -15 26 -15 8 0 14 -4 14 -10 0 -5 4 -10
9 -10 8 0 188 -101 296 -167 22 -13 48 -26 58 -30 9 -3 17 -9 17 -14 0 -5 5
-9 11 -9 9 0 129 -68 669 -381 102 -59 208 -119 235 -134 28 -15 102 -58 165
-95 63 -37 132 -77 153 -89 l37 -21 193 112 c105 61 201 116 212 122 20 11
368 211 403 231 9 6 49 28 87 50 39 21 72 41 75 44 5 6 81 48 117 65 13 6 23
14 23 19 0 4 5 7 11 7 9 0 367 203 439 249 14 8 34 21 45 27 41 22 112 62 163
93 29 17 57 31 62 31 6 0 10 4 10 8 0 4 12 13 28 20 15 6 54 28 87 47 33 20
68 39 78 42 9 3 17 9 17 14 0 5 4 9 10 9 5 0 39 18 75 40 36 22 67 40 70 40 4
0 68 37 135 78 14 9 27 15 30 15 3 0 17 8 32 18 14 10 31 19 36 19 6 0 12 4
14 8 3 7 35 26 218 130 25 14 59 34 75 44 17 10 36 21 44 25 8 3 64 36 125 71
61 36 136 78 166 95 30 17 66 38 80 47 14 9 52 32 85 50 33 18 74 41 90 50
157 90 188 110 175 111 -8 0 -590 1 -1292 1 l-1278 1 0 36 c-1 53 -1 1078 0
1132 l0 46 1278 1 c702 0 1283 1 1291 1 12 1 -92 71 -105 71 -2 0 -27 14 -56
31 -29 18 -66 40 -83 49 -16 10 -70 41 -118 69 -49 28 -93 51 -98 51 -5 0 -9
5 -9 10 0 6 -4 10 -9 10 -5 0 -64 32 -130 70 -67 39 -126 70 -131 70 -4 0 -10
3 -12 8 -4 9 -217 132 -229 132 -5 0 -9 5 -9 10 0 6 -3 9 -7 8 -5 -1 -19 5
-33 14 -55 35 -222 128 -231 128 -5 0 -9 5 -9 10 0 6 -4 10 -9 10 -8 0 -200
107 -251 140 -8 5 -64 37 -125 71 -60 35 -121 70 -135 79 -14 9 -50 31 -80 47
-49 27 -97 55 -225 129 -22 13 -51 29 -65 36 -14 7 -27 15 -30 19 -3 3 -10 8
-15 10 -9 3 -328 186 -385 220 -42 25 -359 207 -371 213 -8 3 -30 16 -49 27
-94 57 -500 289 -503 288 -1 0 -47 -27 -102 -59z m-386 -847 c2 -66 2 -55 0
-190 0 -56 2 -106 6 -112 3 -6 2 -11 -2 -11 -5 0 -8 -18 -6 -39 2 -38 0 -40
-50 -65 -29 -14 -74 -38 -102 -54 -27 -16 -79 -44 -115 -64 -36 -19 -91 -49
-123 -68 l-58 -32 -369 -2 c-204 0 -370 2 -370 5 0 6 30 24 205 124 22 13 81
47 130 75 50 29 99 58 110 64 33 19 244 139 278 159 18 11 50 29 72 40 22 12
44 26 50 30 8 6 337 196 341 197 1 0 2 -26 3 -57z m1106 -12 c5 -5 31 -20 58
-35 88 -49 137 -77 249 -142 61 -35 115 -64 119 -64 5 0 9 -3 9 -7 0 -5 10
-13 23 -19 45 -22 143 -77 169 -95 14 -11 29 -19 32 -19 3 0 66 -36 142 -80
75 -44 137 -80 139 -80 2 0 34 -18 71 -40 l69 -40 -40 -1 c-22 0 -191 -1 -376
-1 l-336 -1 -104 58 c-106 59 -181 100 -279 151 -30 16 -58 33 -62 39 -4 5 -7
107 -8 227 l0 217 57 -30 c32 -17 62 -34 68 -38z m-1470 -2866 c50 -27 92 -51
95 -54 3 -3 21 -14 40 -23 78 -39 199 -104 213 -116 9 -8 15 -30 15 -55 0 -23
1 -46 2 -52 1 -5 1 -14 0 -20 -4 -20 1 -148 6 -156 3 -5 2 -9 -3 -9 -4 0 -7
-36 -6 -80 l3 -80 -43 23 c-23 13 -69 39 -102 58 -33 18 -61 37 -63 41 -2 4
-8 8 -12 8 -5 0 -83 43 -174 95 -148 85 -220 126 -281 159 -11 6 -22 13 -25
16 -5 5 -24 16 -99 57 -25 14 -50 29 -56 33 -9 6 -43 26 -135 77 -14 8 -43 25
-65 39 -22 13 -62 36 -89 50 -27 14 -44 29 -39 32 6 4 172 6 370 6 l358 -2 90
-47z m2539 43 c-4 -5 -34 -24 -154 -91 -19 -10 -72 -41 -118 -68 -45 -27 -87
-49 -92 -49 -6 0 -10 -3 -10 -7 0 -5 -19 -17 -43 -28 -23 -11 -44 -23 -47 -26
-3 -4 -30 -19 -60 -34 -30 -16 -62 -34 -70 -40 -8 -7 -46 -30 -85 -50 -38 -21
-81 -46 -95 -55 -23 -15 -129 -76 -218 -125 -21 -11 -39 -22 -42 -25 -3 -3
-25 -16 -50 -29 -25 -13 -60 -33 -77 -43 l-33 -20 0 224 0 224 63 33 c34 19
85 46 112 61 28 15 86 47 130 70 44 24 92 52 108 62 15 11 27 17 27 15 0 -3
11 -2 25 1 32 9 734 9 729 0z"/>
</g>
</svg>
